<?xml version="1.0" encoding="utf-8"?>
<!-- Generator: Adobe Illustrator 24.2.3, SVG Export Plug-In . SVG Version: 6.00 Build 0)  -->
<svg version="1.1" id="Layer_1" xmlns="http://www.w3.org/2000/svg" xmlns:xlink="http://www.w3.org/1999/xlink" x="0px" y="0px"
	 viewBox="0 0 600 409" style="enable-background:new 0 0 600 409;" xml:space="preserve">
<style type="text/css">
	.st0{fill:#679E63;}
	.st1{fill-rule:evenodd;clip-rule:evenodd;fill:#FFFFFF;}
	.st2{fill-rule:evenodd;clip-rule:evenodd;fill:#679E63;}
	.st3{clip-path:url(#XMLID_3_);}
	.st4{fill:none;}
	.st5{fill:url(#SVGID_1_);}
	.st6{fill:url(#SVGID_2_);}
	.st7{fill:url(#SVGID_3_);}
	.st8{fill:url(#SVGID_4_);}
	.st9{fill:url(#SVGID_5_);}
	.st10{fill:url(#SVGID_6_);}
</style>
<g>
	<path class="st0" d="M296.5,388.5c-2,0-4-0.5-5.7-1.5l-18.1-10.7c-2.7-1.5-1.4-2-0.5-2.4c3.6-1.3,4.3-1.5,8.2-3.7
		c0.4-0.2,0.9-0.1,1.3,0.1l13.9,8.3c0.5,0.3,1.2,0.3,1.7,0l54.2-31.3c0.5-0.3,0.8-0.9,0.8-1.5v-62.5c0-0.6-0.3-1.2-0.8-1.5
		l-54.2-31.3c-0.5-0.3-1.2-0.3-1.7,0l-54.2,31.3c-0.5,0.3-0.9,0.9-0.9,1.5v62.5c0,0.6,0.3,1.2,0.9,1.4l14.8,8.6c8.1,4,13-0.7,13-5.5
		v-61.7c0-0.9,0.7-1.6,1.6-1.6h6.9c0.9,0,1.6,0.7,1.6,1.6v61.7c0,10.8-5.9,16.9-16,16.9c-3.1,0-5.6,0-12.5-3.4l-14.2-8.2
		c-3.5-2-5.7-5.8-5.7-9.9v-62.5c0-4.1,2.2-7.9,5.7-9.9l54.2-31.3c3.4-1.9,8-1.9,11.4,0l54.2,31.3c3.5,2,5.7,5.8,5.7,9.9v62.5
		c0,4.1-2.2,7.8-5.7,9.9L302.2,387C300.5,388,298.5,388.5,296.5,388.5z"/>
	<path class="st0" d="M313.2,345.4c-23.7,0-28.7-10.9-28.7-20c0-0.9,0.7-1.6,1.6-1.6h7c0.8,0,1.4,0.6,1.6,1.3
		c1.1,7.1,4.2,10.7,18.6,10.7c11.4,0,16.3-2.6,16.3-8.6c0-3.5-1.4-6.1-19.1-7.8c-14.8-1.5-24-4.7-24-16.6c0-10.9,9.2-17.5,24.7-17.5
		c17.4,0,26,6,27,19c0,0.4-0.1,0.9-0.4,1.2c-0.3,0.3-0.7,0.5-1.1,0.5h-7c-0.7,0-1.4-0.5-1.5-1.2c-1.7-7.5-5.8-9.9-16.9-9.9
		c-12.5,0-13.9,4.3-13.9,7.6c0,3.9,1.7,5.1,18.5,7.3c16.7,2.2,24.6,5.3,24.6,17C340.3,338.7,330.4,345.4,313.2,345.4z"/>
</g>
<g>
	<path class="st0" d="M391.4,279.8c0,5.7-4.7,10.4-10.4,10.4c-5.7,0-10.4-4.6-10.4-10.4c0-5.9,4.9-10.4,10.4-10.4
		C386.6,269.4,391.4,273.9,391.4,279.8z M372.2,279.8c0,4.9,3.9,8.8,8.7,8.8c4.9,0,8.8-4,8.8-8.8c0-4.9-4-8.7-8.8-8.7
		C376.2,271.1,372.2,274.9,372.2,279.8z M377,274h4c1.4,0,4.1,0,4.1,3.1c0,2.2-1.4,2.6-2.2,2.9c1.6,0.1,1.7,1.2,1.9,2.7
		c0.1,0.9,0.3,2.5,0.6,3.1H383c-0.1-0.6-0.4-3.5-0.4-3.7c-0.2-0.7-0.4-1-1.2-1h-2v4.7H377V274z M379.2,279.1h1.8
		c1.5,0,1.8-1,1.8-1.7c0-1.6-1.1-1.6-1.7-1.6h-1.9V279.1z"/>
</g>
<path class="st1" d="M128.7,143.8c0-2.5-1.3-4.8-3.5-6l-57.5-33.1c-1-0.6-2.1-0.9-3.2-0.9c-0.1,0-0.5,0-0.6,0
	c-1.1,0-2.2,0.3-3.2,0.9L3.4,137.8c-2.1,1.2-3.5,3.5-3.5,6l0.1,89c0,1.2,0.6,2.4,1.7,3c1.1,0.6,2.4,0.6,3.4,0l34.1-19.6
	c2.2-1.3,3.5-3.5,3.5-6v-41.6c0-2.5,1.3-4.8,3.5-6l14.5-8.4c1.1-0.6,2.3-0.9,3.5-0.9c1.2,0,2.4,0.3,3.5,0.9l14.5,8.4
	c2.2,1.2,3.5,3.5,3.5,6v41.6c0,2.5,1.3,4.8,3.5,6l34.1,19.6c1.1,0.6,2.4,0.6,3.5,0c1.1-0.6,1.7-1.8,1.7-3L128.7,143.8z"/>
<path class="st1" d="M405.2,21.4c-1.1-0.6-2.4-0.6-3.4,0c-1.1,0.6-1.7,1.8-1.7,3v88.2c0,0.9-0.5,1.7-1.2,2.1c-0.8,0.4-1.7,0.4-2.4,0
	l-14.4-8.3c-2.1-1.2-4.8-1.2-6.9,0l-57.5,33.2c-2.1,1.2-3.5,3.5-3.5,6V212c0,2.5,1.3,4.8,3.5,6l57.5,33.2c2.1,1.2,4.8,1.2,6.9,0
	l57.5-33.2c2.1-1.2,3.5-3.5,3.5-6V46.6c0-2.5-1.4-4.8-3.6-6.1L405.2,21.4z M399.8,190.2c0,0.6-0.3,1.2-0.9,1.5l-19.7,11.4
	c-0.5,0.3-1.2,0.3-1.7,0l-19.7-11.4c-0.5-0.3-0.9-0.9-0.9-1.5v-22.8c0-0.6,0.3-1.2,0.9-1.5l19.7-11.4c0.5-0.3,1.2-0.3,1.7,0
	l19.7,11.4c0.5,0.3,0.9,0.9,0.9,1.5V190.2z"/>
<g>
	<path class="st1" d="M596.5,166.8c2.1-1.2,3.5-3.5,3.5-6v-16.1c0-2.5-1.3-4.8-3.5-6l-57.1-33.2c-2.1-1.2-4.8-1.3-7,0L475,138.7
		c-2.1,1.2-3.5,3.5-3.5,6v66.3c0,2.5,1.3,4.8,3.5,6l57.1,32.5c2.1,1.2,4.7,1.2,6.8,0l34.5-19.2c1.1-0.6,1.8-1.8,1.8-3
		c0-1.3-0.7-2.4-1.7-3l-57.8-33.2c-1.1-0.6-1.7-1.8-1.7-3v-20.8c0-1.2,0.7-2.4,1.7-3l18-10.4c1.1-0.6,2.4-0.6,3.5,0l18,10.4
		c1.1,0.6,1.7,1.8,1.7,3v16.4c0,1.2,0.7,2.4,1.7,3c1.1,0.6,2.4,0.6,3.5,0L596.5,166.8z"/>
	<path class="st2" d="M535.1,163.7c0.4-0.2,0.9-0.2,1.3,0l11,6.4c0.4,0.2,0.7,0.7,0.7,1.2V184c0,0.5-0.3,0.9-0.7,1.2l-11,6.4
		c-0.4,0.2-0.9,0.2-1.3,0l-11-6.4c-0.4-0.2-0.7-0.7-0.7-1.2v-12.7c0-0.5,0.3-0.9,0.7-1.2L535.1,163.7z"/>
</g>
<g>
	<defs>
		<path id="XMLID_143_" d="M224.8,105.9c-2.1-1.2-4.8-1.2-6.9,0l-57.2,33c-2.1,1.2-3.5,3.5-3.5,6v66c0,2.5,1.3,4.7,3.5,6l57.2,33
			c2.1,1.2,4.8,1.2,6.9,0l57.1-33c2.1-1.2,3.5-3.5,3.5-6v-66c0-2.5-1.3-4.7-3.5-6L224.8,105.9z"/>
	</defs>
	<linearGradient id="XMLID_2_" gradientUnits="userSpaceOnUse" x1="244.6187" y1="130.4699" x2="192.982" y2="235.8088">
		<stop  offset="0" style="stop-color:#3F873F"/>
		<stop  offset="0.3296" style="stop-color:#3F8B3D"/>
		<stop  offset="0.6367" style="stop-color:#3E9638"/>
		<stop  offset="0.9341" style="stop-color:#3DA92E"/>
		<stop  offset="1" style="stop-color:#3DAE2B"/>
	</linearGradient>
	<use xlink:href="#XMLID_143_"  style="overflow:visible;fill-rule:evenodd;clip-rule:evenodd;fill:url(#XMLID_2_);"/>
	<clipPath id="XMLID_3_">
		<use xlink:href="#XMLID_143_"  style="overflow:visible;"/>
	</clipPath>
	<g class="st3">
		<path class="st4" d="M217.8,105.9l-57.3,33c-2.1,1.2-3.7,3.5-3.7,6v66c0,1.6,0.7,3.2,1.8,4.4L223,105.2
			C221.3,104.8,219.4,105,217.8,105.9z"/>
		<path class="st4" d="M223.3,250.5c0.6-0.2,1.1-0.4,1.6-0.7l57.2-33c2.1-1.2,3.6-3.5,3.6-6v-66c0-1.8-0.8-3.5-2.1-4.8L223.3,250.5z
			"/>
		<linearGradient id="SVGID_1_" gradientUnits="userSpaceOnUse" x1="212.6802" y1="185.5984" x2="357.569" y2="78.5468">
			<stop  offset="0.1376" style="stop-color:#3F873F"/>
			<stop  offset="0.4016" style="stop-color:#52A044"/>
			<stop  offset="0.7129" style="stop-color:#64B749"/>
			<stop  offset="0.9081" style="stop-color:#6ABF4B"/>
		</linearGradient>
		<path class="st5" d="M282.1,138.9l-57.3-33c-0.6-0.3-1.2-0.6-1.8-0.7l-64.4,110.1c0.6,0.6,1.2,1.2,1.9,1.6l57.4,33
			c1.6,0.9,3.6,1.2,5.3,0.7l60.3-110.5C283.2,139.6,282.7,139.2,282.1,138.9z"/>
	</g>
	<g class="st3">
		<path class="st4" d="M285.7,210.9v-66c0-2.5-1.5-4.7-3.6-6l-57.3-33c-0.7-0.4-1.4-0.6-2.1-0.8l62.8,107.3
			C285.6,212,285.7,211.4,285.7,210.9z"/>
		<path class="st4" d="M160.5,138.9c-2.1,1.2-3.7,3.5-3.7,6v66c0,2.5,1.6,4.7,3.7,6l57.4,33c1.4,0.8,2.9,1.1,4.4,0.9l-61.5-112
			L160.5,138.9z"/>
		<linearGradient id="SVGID_2_" gradientUnits="userSpaceOnUse" x1="155.3046" y1="94.0057" x2="287.4551" y2="94.0057">
			<stop  offset="9.191646e-02" style="stop-color:#6ABF4B"/>
			<stop  offset="0.2871" style="stop-color:#64B749"/>
			<stop  offset="0.5984" style="stop-color:#52A044"/>
			<stop  offset="0.8624" style="stop-color:#3F873F"/>
		</linearGradient>
		<polygon class="st6" points="216,93.8 215.2,94.2 216.3,94.2 		"/>
		<linearGradient id="SVGID_3_" gradientUnits="userSpaceOnUse" x1="155.3046" y1="177.8635" x2="287.4551" y2="177.8635">
			<stop  offset="9.191646e-02" style="stop-color:#6ABF4B"/>
			<stop  offset="0.2871" style="stop-color:#64B749"/>
			<stop  offset="0.5984" style="stop-color:#52A044"/>
			<stop  offset="0.8624" style="stop-color:#3F873F"/>
		</linearGradient>
		<path class="st7" d="M282.1,216.9c1.7-1,2.9-2.6,3.4-4.4l-62.8-107.3c-1.6-0.3-3.4-0.1-4.9,0.8l-56.9,32.8l61.5,112
			c0.9-0.1,1.7-0.4,2.5-0.9L282.1,216.9z"/>
		<linearGradient id="SVGID_4_" gradientUnits="userSpaceOnUse" x1="155.3046" y1="215.5898" x2="287.4551" y2="215.5898">
			<stop  offset="9.191646e-02" style="stop-color:#6ABF4B"/>
			<stop  offset="0.2871" style="stop-color:#64B749"/>
			<stop  offset="0.5984" style="stop-color:#52A044"/>
			<stop  offset="0.8624" style="stop-color:#3F873F"/>
		</linearGradient>
		<polygon class="st8" points="287.5,215.8 287.1,215.2 287.1,216 		"/>
		<linearGradient id="SVGID_5_" gradientUnits="userSpaceOnUse" x1="155.3046" y1="232.6411" x2="287.4551" y2="232.6411">
			<stop  offset="9.191646e-02" style="stop-color:#6ABF4B"/>
			<stop  offset="0.2871" style="stop-color:#64B749"/>
			<stop  offset="0.5984" style="stop-color:#52A044"/>
			<stop  offset="0.8624" style="stop-color:#3F873F"/>
		</linearGradient>
		<path class="st9" d="M282.1,216.9l-57.2,33c-0.8,0.5-1.6,0.7-2.5,0.9l1.1,2.1l63.5-36.8v-0.9l-1.6-2.7
			C285,214.3,283.8,215.9,282.1,216.9z"/>
		<linearGradient id="SVGID_6_" gradientUnits="userSpaceOnUse" x1="306.7079" y1="127.3469" x2="225.2058" y2="293.6111">
			<stop  offset="0" style="stop-color:#3F873F"/>
			<stop  offset="0.3296" style="stop-color:#3F8B3D"/>
			<stop  offset="0.6367" style="stop-color:#3E9638"/>
			<stop  offset="0.9341" style="stop-color:#3DA92E"/>
			<stop  offset="1" style="stop-color:#3DAE2B"/>
		</linearGradient>
		<path class="st10" d="M282.1,216.9l-57.2,33c-0.8,0.5-1.6,0.7-2.5,0.9l1.1,2.1l63.5-36.8v-0.9l-1.6-2.7
			C285,214.3,283.8,215.9,282.1,216.9z"/>
	</g>
</g>
</svg>
